<mxfile host="65bd71144e">
    <diagram id="9qPe9D3x_3Ik3Gr1dCIh" name="Страница 1">
        <mxGraphModel dx="3394" dy="2360" grid="1" gridSize="10" guides="1" tooltips="1" connect="1" arrows="1" fold="1" page="1" pageScale="1" pageWidth="827" pageHeight="1169" math="0" shadow="0">
            <root>
                <mxCell id="0"/>
                <mxCell id="1" parent="0"/>
                <mxCell id="88" style="edgeStyle=none;html=1;exitX=1;exitY=0.75;exitDx=0;exitDy=0;entryX=0;entryY=0.5;entryDx=0;entryDy=0;endArrow=classic;endFill=1;startArrow=classic;startFill=1;jumpSize=16;fontSize=25;" parent="1" source="2" target="33" edge="1">
                    <mxGeometry relative="1" as="geometry"/>
                </mxCell>
                <mxCell id="121" value="1" style="edgeLabel;html=1;align=center;verticalAlign=middle;resizable=0;points=[];fontSize=25;" parent="88" vertex="1" connectable="0">
                    <mxGeometry x="0.8738" y="2" relative="1" as="geometry">
                        <mxPoint as="offset"/>
                    </mxGeometry>
                </mxCell>
                <mxCell id="122" value="М" style="edgeLabel;html=1;align=center;verticalAlign=middle;resizable=0;points=[];fontSize=25;" parent="88" vertex="1" connectable="0">
                    <mxGeometry x="-0.8596" y="3" relative="1" as="geometry">
                        <mxPoint as="offset"/>
                    </mxGeometry>
                </mxCell>
                <mxCell id="106" style="edgeStyle=none;jumpSize=16;html=1;exitX=1;exitY=1;exitDx=0;exitDy=0;entryX=0.375;entryY=0;entryDx=0;entryDy=0;startArrow=classic;startFill=1;endArrow=classic;endFill=1;fontSize=25;" parent="1" source="2" target="123" edge="1">
                    <mxGeometry relative="1" as="geometry">
                        <mxPoint x="310" y="980" as="targetPoint"/>
                    </mxGeometry>
                </mxCell>
                <mxCell id="107" value="1" style="edgeLabel;html=1;align=center;verticalAlign=middle;resizable=0;points=[];fontSize=25;" parent="106" vertex="1" connectable="0">
                    <mxGeometry x="-0.9514" y="2" relative="1" as="geometry">
                        <mxPoint as="offset"/>
                    </mxGeometry>
                </mxCell>
                <mxCell id="108" value="М" style="edgeLabel;html=1;align=center;verticalAlign=middle;resizable=0;points=[];fontSize=25;" parent="106" vertex="1" connectable="0">
                    <mxGeometry x="0.9287" y="-1" relative="1" as="geometry">
                        <mxPoint as="offset"/>
                    </mxGeometry>
                </mxCell>
                <mxCell id="2" value="Врач" style="rounded=0;whiteSpace=wrap;html=1;fontSize=25;" parent="1" vertex="1">
                    <mxGeometry x="-488" y="190" width="120" height="60" as="geometry"/>
                </mxCell>
                <mxCell id="18" style="edgeStyle=none;html=1;exitX=1;exitY=1;exitDx=0;exitDy=0;endArrow=none;endFill=0;fontSize=25;" parent="1" source="3" target="2" edge="1">
                    <mxGeometry relative="1" as="geometry"/>
                </mxCell>
                <mxCell id="3" value="Дата_рождения" style="ellipse;whiteSpace=wrap;html=1;fontSize=25;" parent="1" vertex="1">
                    <mxGeometry x="-680" y="40" width="202" height="80" as="geometry"/>
                </mxCell>
                <mxCell id="19" style="edgeStyle=none;html=1;exitX=0.5;exitY=1;exitDx=0;exitDy=0;entryX=0.647;entryY=-0.044;entryDx=0;entryDy=0;entryPerimeter=0;endArrow=none;endFill=0;fontSize=25;" parent="1" source="4" target="2" edge="1">
                    <mxGeometry relative="1" as="geometry"/>
                </mxCell>
                <mxCell id="4" value="Телефон" style="ellipse;whiteSpace=wrap;html=1;fontSize=25;" parent="1" vertex="1">
                    <mxGeometry x="-460" y="10" width="120" height="80" as="geometry"/>
                </mxCell>
                <mxCell id="15" style="edgeStyle=none;html=1;exitX=1;exitY=0.5;exitDx=0;exitDy=0;entryX=0;entryY=0.5;entryDx=0;entryDy=0;endArrow=none;endFill=0;fontSize=25;" parent="1" source="5" target="2" edge="1">
                    <mxGeometry relative="1" as="geometry"/>
                </mxCell>
                <mxCell id="5" value="Номер_расписания" style="ellipse;whiteSpace=wrap;html=1;fontSize=25;" parent="1" vertex="1">
                    <mxGeometry x="-800" y="170" width="252" height="90" as="geometry"/>
                </mxCell>
                <mxCell id="14" style="edgeStyle=none;html=1;exitX=0.5;exitY=0;exitDx=0;exitDy=0;endArrow=none;endFill=0;fontSize=25;" parent="1" source="6" target="2" edge="1">
                    <mxGeometry relative="1" as="geometry"/>
                </mxCell>
                <mxCell id="6" value="&lt;b style=&quot;font-size: 25px;&quot;&gt;&lt;i style=&quot;font-size: 25px;&quot;&gt;&lt;u style=&quot;font-size: 25px;&quot;&gt;Код_врача&lt;/u&gt;&lt;/i&gt;&lt;/b&gt;" style="ellipse;whiteSpace=wrap;html=1;fontSize=25;" parent="1" vertex="1">
                    <mxGeometry x="-660" y="300" width="212" height="80" as="geometry"/>
                </mxCell>
                <mxCell id="12" style="edgeStyle=none;html=1;exitX=0.5;exitY=0;exitDx=0;exitDy=0;endArrow=none;endFill=0;fontSize=25;" parent="1" source="7" target="2" edge="1">
                    <mxGeometry relative="1" as="geometry"/>
                </mxCell>
                <mxCell id="7" value="ФИО" style="ellipse;whiteSpace=wrap;html=1;fontSize=25;" parent="1" vertex="1">
                    <mxGeometry x="-446" y="340" width="142" height="80" as="geometry"/>
                </mxCell>
                <mxCell id="20" style="edgeStyle=none;html=1;exitX=0;exitY=0.5;exitDx=0;exitDy=0;endArrow=none;endFill=0;fontSize=25;" parent="1" source="8" target="2" edge="1">
                    <mxGeometry relative="1" as="geometry"/>
                </mxCell>
                <mxCell id="8" value="Паспорт" style="ellipse;whiteSpace=wrap;html=1;fontSize=25;" parent="1" vertex="1">
                    <mxGeometry x="-304" y="70" width="120" height="80" as="geometry"/>
                </mxCell>
                <mxCell id="97" style="edgeStyle=none;jumpSize=16;html=1;exitX=1;exitY=0.5;exitDx=0;exitDy=0;entryX=0;entryY=0.25;entryDx=0;entryDy=0;startArrow=classic;startFill=1;endArrow=classic;endFill=1;fontSize=25;" parent="1" source="21" target="71" edge="1">
                    <mxGeometry relative="1" as="geometry"/>
                </mxCell>
                <mxCell id="115" value="М" style="edgeLabel;html=1;align=center;verticalAlign=middle;resizable=0;points=[];fontSize=25;" parent="97" vertex="1" connectable="0">
                    <mxGeometry x="0.9237" y="-1" relative="1" as="geometry">
                        <mxPoint as="offset"/>
                    </mxGeometry>
                </mxCell>
                <mxCell id="116" value="1" style="edgeLabel;html=1;align=center;verticalAlign=middle;resizable=0;points=[];fontSize=25;" parent="97" vertex="1" connectable="0">
                    <mxGeometry x="-0.8895" y="1" relative="1" as="geometry">
                        <mxPoint as="offset"/>
                    </mxGeometry>
                </mxCell>
                <mxCell id="100" style="edgeStyle=none;jumpSize=16;html=1;exitX=1;exitY=1;exitDx=0;exitDy=0;entryX=0.027;entryY=0.387;entryDx=0;entryDy=0;startArrow=classic;startFill=1;endArrow=classic;endFill=1;entryPerimeter=0;fontSize=25;" parent="1" source="21" target="123" edge="1">
                    <mxGeometry relative="1" as="geometry">
                        <mxPoint x="250" y="995" as="targetPoint"/>
                    </mxGeometry>
                </mxCell>
                <mxCell id="117" value="1" style="edgeLabel;html=1;align=center;verticalAlign=middle;resizable=0;points=[];fontSize=25;" parent="100" vertex="1" connectable="0">
                    <mxGeometry x="-0.8922" y="-1" relative="1" as="geometry">
                        <mxPoint as="offset"/>
                    </mxGeometry>
                </mxCell>
                <mxCell id="118" value="М" style="edgeLabel;html=1;align=center;verticalAlign=middle;resizable=0;points=[];fontSize=25;" parent="100" vertex="1" connectable="0">
                    <mxGeometry x="0.8484" y="1" relative="1" as="geometry">
                        <mxPoint as="offset"/>
                    </mxGeometry>
                </mxCell>
                <mxCell id="124" style="edgeStyle=none;html=1;exitX=0.75;exitY=1;exitDx=0;exitDy=0;entryX=0.303;entryY=0.05;entryDx=0;entryDy=0;entryPerimeter=0;endArrow=none;endFill=0;" edge="1" parent="1" source="21" target="26">
                    <mxGeometry relative="1" as="geometry"/>
                </mxCell>
                <mxCell id="21" value="Пациент" style="rounded=0;whiteSpace=wrap;html=1;fontSize=25;" parent="1" vertex="1">
                    <mxGeometry x="-470" y="630" width="190" height="70" as="geometry"/>
                </mxCell>
                <mxCell id="31" style="edgeStyle=none;html=1;exitX=1;exitY=0.5;exitDx=0;exitDy=0;endArrow=none;endFill=0;fontSize=25;" parent="1" source="22" edge="1">
                    <mxGeometry relative="1" as="geometry">
                        <mxPoint x="-470" y="660" as="targetPoint"/>
                    </mxGeometry>
                </mxCell>
                <mxCell id="22" value="&lt;b style=&quot;font-size: 25px;&quot;&gt;&lt;i style=&quot;font-size: 25px;&quot;&gt;Номер_карты&lt;/i&gt;&lt;/b&gt;" style="ellipse;whiteSpace=wrap;html=1;fontSize=25;" parent="1" vertex="1">
                    <mxGeometry x="-710" y="590" width="200" height="100" as="geometry"/>
                </mxCell>
                <mxCell id="32" style="edgeStyle=none;html=1;exitX=1;exitY=0;exitDx=0;exitDy=0;entryX=0.25;entryY=1;entryDx=0;entryDy=0;endArrow=none;endFill=0;fontSize=25;" parent="1" source="23" target="21" edge="1">
                    <mxGeometry relative="1" as="geometry"/>
                </mxCell>
                <mxCell id="23" value="ФИО" style="ellipse;whiteSpace=wrap;html=1;fontSize=25;" parent="1" vertex="1">
                    <mxGeometry x="-598" y="730" width="120" height="80" as="geometry"/>
                </mxCell>
                <mxCell id="29" style="edgeStyle=none;html=1;exitX=0.5;exitY=0;exitDx=0;exitDy=0;entryX=0.5;entryY=1;entryDx=0;entryDy=0;endArrow=none;endFill=0;fontSize=25;" parent="1" source="24" target="21" edge="1">
                    <mxGeometry relative="1" as="geometry"/>
                </mxCell>
                <mxCell id="24" value="Телефон" style="ellipse;whiteSpace=wrap;html=1;fontSize=25;" parent="1" vertex="1">
                    <mxGeometry x="-488" y="805" width="120" height="80" as="geometry"/>
                </mxCell>
                <mxCell id="28" style="edgeStyle=none;html=1;exitX=1;exitY=1;exitDx=0;exitDy=0;entryX=0.5;entryY=0;entryDx=0;entryDy=0;endArrow=none;endFill=0;fontSize=25;" parent="1" source="25" target="21" edge="1">
                    <mxGeometry relative="1" as="geometry"/>
                </mxCell>
                <mxCell id="25" value="Дата_рождения" style="ellipse;whiteSpace=wrap;html=1;fontSize=25;" parent="1" vertex="1">
                    <mxGeometry x="-550" y="510" width="200" height="70" as="geometry"/>
                </mxCell>
                <mxCell id="26" value="Страховой_полис" style="ellipse;whiteSpace=wrap;html=1;fontSize=25;" parent="1" vertex="1">
                    <mxGeometry x="-350" y="800" width="240" height="90" as="geometry"/>
                </mxCell>
                <mxCell id="39" style="edgeStyle=none;html=1;exitX=0;exitY=0.25;exitDx=0;exitDy=0;endArrow=none;endFill=0;fontSize=25;" parent="1" source="33" target="34" edge="1">
                    <mxGeometry relative="1" as="geometry"/>
                </mxCell>
                <mxCell id="40" style="edgeStyle=none;html=1;exitX=1;exitY=0.5;exitDx=0;exitDy=0;entryX=0;entryY=1;entryDx=0;entryDy=0;endArrow=none;endFill=0;fontSize=25;" parent="1" source="33" target="36" edge="1">
                    <mxGeometry relative="1" as="geometry"/>
                </mxCell>
                <mxCell id="94" style="edgeStyle=none;jumpSize=16;html=1;exitX=1;exitY=0.75;exitDx=0;exitDy=0;startArrow=classic;startFill=1;endArrow=classic;endFill=1;fontSize=25;" parent="1" source="33" target="58" edge="1">
                    <mxGeometry relative="1" as="geometry"/>
                </mxCell>
                <mxCell id="119" value="М" style="edgeLabel;html=1;align=center;verticalAlign=middle;resizable=0;points=[];fontSize=25;" parent="94" vertex="1" connectable="0">
                    <mxGeometry x="0.8786" y="2" relative="1" as="geometry">
                        <mxPoint as="offset"/>
                    </mxGeometry>
                </mxCell>
                <mxCell id="120" value="1" style="edgeLabel;html=1;align=center;verticalAlign=middle;resizable=0;points=[];fontSize=25;" parent="94" vertex="1" connectable="0">
                    <mxGeometry x="-0.8842" y="-1" relative="1" as="geometry">
                        <mxPoint as="offset"/>
                    </mxGeometry>
                </mxCell>
                <mxCell id="33" value="&lt;font style=&quot;font-size: 25px;&quot;&gt;Расписание&amp;nbsp;&lt;/font&gt;" style="rounded=0;whiteSpace=wrap;html=1;fontSize=25;" parent="1" vertex="1">
                    <mxGeometry x="260" width="160" height="100" as="geometry"/>
                </mxCell>
                <mxCell id="34" value="&lt;b style=&quot;font-size: 25px;&quot;&gt;&lt;i style=&quot;font-size: 25px;&quot;&gt;Номер_расписания&lt;/i&gt;&lt;/b&gt;" style="ellipse;whiteSpace=wrap;html=1;fontSize=25;" parent="1" vertex="1">
                    <mxGeometry x="-60" y="-90" width="280" height="80" as="geometry"/>
                </mxCell>
                <mxCell id="42" style="edgeStyle=none;html=1;exitX=0.595;exitY=1.042;exitDx=0;exitDy=0;endArrow=none;endFill=0;fontSize=25;exitPerimeter=0;" parent="1" source="35" edge="1">
                    <mxGeometry relative="1" as="geometry">
                        <mxPoint x="300" as="targetPoint"/>
                    </mxGeometry>
                </mxCell>
                <mxCell id="35" value="День_приема" style="ellipse;whiteSpace=wrap;html=1;fontSize=25;" parent="1" vertex="1">
                    <mxGeometry x="140" y="-200" width="200" height="100" as="geometry"/>
                </mxCell>
                <mxCell id="36" value="Номер_кабинета&amp;nbsp;" style="ellipse;whiteSpace=wrap;html=1;fontSize=25;" parent="1" vertex="1">
                    <mxGeometry x="450" y="-110" width="230" height="80" as="geometry"/>
                </mxCell>
                <mxCell id="41" style="edgeStyle=none;html=1;exitX=0.285;exitY=1;exitDx=0;exitDy=0;entryX=0.75;entryY=0;entryDx=0;entryDy=0;endArrow=none;endFill=0;fontSize=25;exitPerimeter=0;" parent="1" source="37" target="33" edge="1">
                    <mxGeometry relative="1" as="geometry"/>
                </mxCell>
                <mxCell id="37" value="&lt;font style=&quot;font-size: 25px;&quot;&gt;Часы_приема&lt;/font&gt;" style="ellipse;whiteSpace=wrap;html=1;fontSize=25;" parent="1" vertex="1">
                    <mxGeometry x="360" y="-210" width="190" height="90" as="geometry"/>
                </mxCell>
                <mxCell id="103" style="edgeStyle=none;jumpSize=16;html=1;exitX=1;exitY=0.25;exitDx=0;exitDy=0;entryX=0.25;entryY=1;entryDx=0;entryDy=0;startArrow=classic;startFill=1;endArrow=classic;endFill=1;fontSize=25;" parent="1" source="123" target="71" edge="1">
                    <mxGeometry relative="1" as="geometry">
                        <mxPoint x="370" y="980" as="sourcePoint"/>
                    </mxGeometry>
                </mxCell>
                <mxCell id="113" value="1" style="edgeLabel;html=1;align=center;verticalAlign=middle;resizable=0;points=[];fontSize=25;" parent="103" vertex="1" connectable="0">
                    <mxGeometry x="-0.8871" y="-1" relative="1" as="geometry">
                        <mxPoint as="offset"/>
                    </mxGeometry>
                </mxCell>
                <mxCell id="114" value="&lt;div style=&quot;text-align: left; font-size: 25px;&quot;&gt;&lt;font face=&quot;Segoe UI, SegoeUI, Helvetica Neue, Helvetica, Arial, sans-serif&quot; color=&quot;#161616&quot; style=&quot;font-size: 25px;&quot;&gt;&lt;span style=&quot;font-size: 25px; background-color: rgb(255, 255, 255);&quot;&gt;М&lt;/span&gt;&lt;/font&gt;&lt;/div&gt;" style="edgeLabel;html=1;align=center;verticalAlign=middle;resizable=0;points=[];fontSize=25;" parent="103" vertex="1" connectable="0">
                    <mxGeometry x="0.8834" y="-1" relative="1" as="geometry">
                        <mxPoint as="offset"/>
                    </mxGeometry>
                </mxCell>
                <mxCell id="54" style="edgeStyle=none;html=1;exitX=1;exitY=0;exitDx=0;exitDy=0;endArrow=none;endFill=0;fontSize=25;" parent="1" source="44" target="123" edge="1">
                    <mxGeometry relative="1" as="geometry">
                        <mxPoint x="270" y="980" as="targetPoint"/>
                    </mxGeometry>
                </mxCell>
                <mxCell id="44" value="&lt;b style=&quot;font-size: 25px;&quot;&gt;&lt;i style=&quot;font-size: 25px;&quot;&gt;Код_приема&lt;/i&gt;&lt;/b&gt;" style="ellipse;whiteSpace=wrap;html=1;fontSize=25;" parent="1" vertex="1">
                    <mxGeometry x="90" y="1140" width="180" height="110" as="geometry"/>
                </mxCell>
                <mxCell id="55" style="edgeStyle=none;html=1;exitX=1;exitY=0.5;exitDx=0;exitDy=0;entryX=0;entryY=0.75;entryDx=0;entryDy=0;endArrow=none;endFill=0;fontSize=25;" parent="1" source="45" target="123" edge="1">
                    <mxGeometry relative="1" as="geometry">
                        <mxPoint x="250" y="1010" as="targetPoint"/>
                    </mxGeometry>
                </mxCell>
                <mxCell id="45" value="Номер_записи" style="ellipse;whiteSpace=wrap;html=1;fontSize=25;" parent="1" vertex="1">
                    <mxGeometry x="-40" y="1030" width="220" height="100" as="geometry"/>
                </mxCell>
                <mxCell id="56" style="edgeStyle=none;html=1;exitX=0.5;exitY=0;exitDx=0;exitDy=0;entryX=0.764;entryY=1.036;entryDx=0;entryDy=0;endArrow=none;endFill=0;fontSize=25;entryPerimeter=0;" parent="1" source="46" target="123" edge="1">
                    <mxGeometry relative="1" as="geometry">
                        <mxPoint x="280" y="1040" as="targetPoint"/>
                    </mxGeometry>
                </mxCell>
                <mxCell id="46" value="Примечание" style="ellipse;whiteSpace=wrap;html=1;fontSize=25;" parent="1" vertex="1">
                    <mxGeometry x="310" y="1130" width="180" height="120" as="geometry"/>
                </mxCell>
                <mxCell id="52" style="edgeStyle=none;html=1;exitX=1;exitY=0.5;exitDx=0;exitDy=0;entryX=0.034;entryY=0.612;entryDx=0;entryDy=0;endArrow=none;endFill=0;fontSize=25;entryPerimeter=0;" parent="1" source="47" target="123" edge="1">
                    <mxGeometry relative="1" as="geometry">
                        <mxPoint x="340" y="980" as="targetPoint"/>
                    </mxGeometry>
                </mxCell>
                <mxCell id="47" value="Код_врача" style="ellipse;whiteSpace=wrap;html=1;fontSize=25;" parent="1" vertex="1">
                    <mxGeometry x="-70" y="930" width="150" height="90" as="geometry"/>
                </mxCell>
                <mxCell id="51" style="edgeStyle=none;html=1;exitX=0;exitY=0.5;exitDx=0;exitDy=0;endArrow=none;endFill=0;entryX=1;entryY=0.5;entryDx=0;entryDy=0;fontSize=25;" parent="1" source="48" target="123" edge="1">
                    <mxGeometry relative="1" as="geometry">
                        <mxPoint x="360" y="1000" as="targetPoint"/>
                    </mxGeometry>
                </mxCell>
                <mxCell id="48" value="Номер_карты" style="ellipse;whiteSpace=wrap;html=1;fontSize=25;" parent="1" vertex="1">
                    <mxGeometry x="520" y="965" width="190" height="100" as="geometry"/>
                </mxCell>
                <mxCell id="57" style="edgeStyle=none;html=1;exitX=0;exitY=0;exitDx=0;exitDy=0;endArrow=none;endFill=0;entryX=1;entryY=0.75;entryDx=0;entryDy=0;fontSize=25;" parent="1" source="49" target="123" edge="1">
                    <mxGeometry relative="1" as="geometry">
                        <mxPoint x="353.52530182067585" y="1040" as="targetPoint"/>
                    </mxGeometry>
                </mxCell>
                <mxCell id="49" value="Диагноз" style="ellipse;whiteSpace=wrap;html=1;fontSize=25;" parent="1" vertex="1">
                    <mxGeometry x="510" y="1080" width="130" height="80" as="geometry"/>
                </mxCell>
                <mxCell id="109" style="edgeStyle=none;jumpSize=16;html=1;exitX=0;exitY=1;exitDx=0;exitDy=0;entryX=0.863;entryY=0.101;entryDx=0;entryDy=0;startArrow=classic;startFill=1;endArrow=classic;endFill=1;entryPerimeter=0;fontSize=25;" parent="1" source="58" target="123" edge="1">
                    <mxGeometry relative="1" as="geometry">
                        <mxPoint x="340" y="980" as="targetPoint"/>
                    </mxGeometry>
                </mxCell>
                <mxCell id="110" value="1" style="edgeLabel;html=1;align=center;verticalAlign=middle;resizable=0;points=[];fontSize=25;" parent="109" vertex="1" connectable="0">
                    <mxGeometry x="-0.8892" relative="1" as="geometry">
                        <mxPoint as="offset"/>
                    </mxGeometry>
                </mxCell>
                <mxCell id="111" value="1" style="edgeLabel;html=1;align=center;verticalAlign=middle;resizable=0;points=[];fontSize=25;" parent="109" vertex="1" connectable="0">
                    <mxGeometry x="0.93" relative="1" as="geometry">
                        <mxPoint as="offset"/>
                    </mxGeometry>
                </mxCell>
                <mxCell id="58" value="Запись" style="rounded=0;whiteSpace=wrap;html=1;fontSize=25;" parent="1" vertex="1">
                    <mxGeometry x="967" y="70" width="120" height="60" as="geometry"/>
                </mxCell>
                <mxCell id="67" style="edgeStyle=none;html=1;entryX=0.349;entryY=-0.033;entryDx=0;entryDy=0;entryPerimeter=0;endArrow=none;endFill=0;fontSize=25;" parent="1" source="59" target="58" edge="1">
                    <mxGeometry relative="1" as="geometry"/>
                </mxCell>
                <mxCell id="59" value="Номер_карты" style="ellipse;whiteSpace=wrap;html=1;fontSize=25;" parent="1" vertex="1">
                    <mxGeometry x="830" y="-90" width="187" height="70" as="geometry"/>
                </mxCell>
                <mxCell id="66" style="edgeStyle=none;html=1;exitX=0.5;exitY=1;exitDx=0;exitDy=0;entryX=0.75;entryY=0;entryDx=0;entryDy=0;endArrow=none;endFill=0;fontSize=25;" parent="1" source="60" target="58" edge="1">
                    <mxGeometry relative="1" as="geometry"/>
                </mxCell>
                <mxCell id="60" value="Номер_расписания" style="ellipse;whiteSpace=wrap;html=1;fontSize=25;" parent="1" vertex="1">
                    <mxGeometry x="1031" y="-60" width="269" height="70" as="geometry"/>
                </mxCell>
                <mxCell id="70" style="edgeStyle=none;html=1;exitX=0;exitY=0.5;exitDx=0;exitDy=0;entryX=1;entryY=0.5;entryDx=0;entryDy=0;endArrow=none;endFill=0;fontSize=25;" parent="1" source="61" target="58" edge="1">
                    <mxGeometry relative="1" as="geometry"/>
                </mxCell>
                <mxCell id="61" value="Время_приема" style="ellipse;whiteSpace=wrap;html=1;fontSize=25;" parent="1" vertex="1">
                    <mxGeometry x="1207" y="50" width="193" height="80" as="geometry"/>
                </mxCell>
                <mxCell id="68" style="edgeStyle=none;html=1;exitX=0.5;exitY=0;exitDx=0;exitDy=0;entryX=0.25;entryY=1;entryDx=0;entryDy=0;endArrow=none;endFill=0;fontSize=25;" parent="1" source="62" target="58" edge="1">
                    <mxGeometry relative="1" as="geometry"/>
                </mxCell>
                <mxCell id="62" value="Дата_приема" style="ellipse;whiteSpace=wrap;html=1;fontSize=25;" parent="1" vertex="1">
                    <mxGeometry x="937" y="220" width="180" height="80" as="geometry"/>
                </mxCell>
                <mxCell id="69" style="edgeStyle=none;html=1;exitX=0.5;exitY=0;exitDx=0;exitDy=0;endArrow=none;endFill=0;fontSize=25;" parent="1" source="63" target="58" edge="1">
                    <mxGeometry relative="1" as="geometry"/>
                </mxCell>
                <mxCell id="63" value="&lt;b style=&quot;font-size: 25px;&quot;&gt;&lt;i style=&quot;font-size: 25px;&quot;&gt;Номер_записи&lt;/i&gt;&lt;/b&gt;" style="ellipse;whiteSpace=wrap;html=1;fontSize=25;" parent="1" vertex="1">
                    <mxGeometry x="1120" y="190" width="220" height="100" as="geometry"/>
                </mxCell>
                <mxCell id="71" value="Больничный_лист" style="rounded=0;whiteSpace=wrap;html=1;fontSize=25;" parent="1" vertex="1">
                    <mxGeometry x="847" y="640" width="220" height="90" as="geometry"/>
                </mxCell>
                <mxCell id="79" style="edgeStyle=none;html=1;exitX=0.5;exitY=1;exitDx=0;exitDy=0;entryX=1;entryY=0;entryDx=0;entryDy=0;endArrow=none;endFill=0;fontSize=25;" parent="1" source="72" target="71" edge="1">
                    <mxGeometry relative="1" as="geometry"/>
                </mxCell>
                <mxCell id="72" value="&lt;b style=&quot;font-size: 25px;&quot;&gt;&lt;i style=&quot;font-size: 25px;&quot;&gt;Номер_больничного_листа&lt;/i&gt;&lt;/b&gt;" style="ellipse;whiteSpace=wrap;html=1;fontSize=25;" parent="1" vertex="1">
                    <mxGeometry x="1027" y="500" width="380" height="80" as="geometry"/>
                </mxCell>
                <mxCell id="78" style="edgeStyle=none;html=1;exitX=0.586;exitY=1.024;exitDx=0;exitDy=0;entryX=0.25;entryY=0;entryDx=0;entryDy=0;endArrow=none;endFill=0;fontSize=25;exitPerimeter=0;" parent="1" source="73" target="71" edge="1">
                    <mxGeometry relative="1" as="geometry"/>
                </mxCell>
                <mxCell id="73" value="Дата_открытия" style="ellipse;whiteSpace=wrap;html=1;fontSize=25;" parent="1" vertex="1">
                    <mxGeometry x="830" y="450" width="190" height="130" as="geometry"/>
                </mxCell>
                <mxCell id="82" style="edgeStyle=none;html=1;exitX=1;exitY=0;exitDx=0;exitDy=0;endArrow=none;endFill=0;fontSize=25;" parent="1" source="74" target="71" edge="1">
                    <mxGeometry relative="1" as="geometry"/>
                </mxCell>
                <mxCell id="74" value="Дата_закрытия" style="ellipse;whiteSpace=wrap;html=1;fontSize=25;" parent="1" vertex="1">
                    <mxGeometry x="790" y="820" width="197" height="130" as="geometry"/>
                </mxCell>
                <mxCell id="81" style="edgeStyle=none;html=1;exitX=0.5;exitY=0;exitDx=0;exitDy=0;entryX=0.75;entryY=1;entryDx=0;entryDy=0;endArrow=none;endFill=0;fontSize=25;" parent="1" source="75" target="71" edge="1">
                    <mxGeometry relative="1" as="geometry"/>
                </mxCell>
                <mxCell id="75" value="Номер_карты" style="ellipse;whiteSpace=wrap;html=1;fontSize=25;" parent="1" vertex="1">
                    <mxGeometry x="995" y="800" width="190" height="110" as="geometry"/>
                </mxCell>
                <mxCell id="80" style="edgeStyle=none;html=1;exitX=0;exitY=0.5;exitDx=0;exitDy=0;endArrow=none;endFill=0;fontSize=25;" parent="1" source="76" target="71" edge="1">
                    <mxGeometry relative="1" as="geometry"/>
                </mxCell>
                <mxCell id="76" value="Код_приема" style="ellipse;whiteSpace=wrap;html=1;fontSize=25;" parent="1" vertex="1">
                    <mxGeometry x="1170" y="630" width="180" height="100" as="geometry"/>
                </mxCell>
                <mxCell id="123" value="Прием" style="shape=hexagon;perimeter=hexagonPerimeter2;whiteSpace=wrap;html=1;fixedSize=1;fontSize=25;" parent="1" vertex="1">
                    <mxGeometry x="250" y="960" width="150" height="110" as="geometry"/>
                </mxCell>
            </root>
        </mxGraphModel>
    </diagram>
</mxfile>